HIERARCHY
ROOT hip
{
  OFFSET -139.549 83.6629 31.6329
  CHANNELS 6 Xposition Yposition Zposition Zrotation Xrotation Yrotation
  JOINT abdomen
  {
    OFFSET 0 20.6881 -0.73152
    CHANNELS 3 Zrotation Xrotation Yrotation
    JOINT chest
    {
      OFFSET 0 11.7043 -0.48768
      CHANNELS 3 Zrotation Xrotation Yrotation
      JOINT neck
      {
        OFFSET 0 22.1894 -2.19456
        CHANNELS 3 Zrotation Xrotation Yrotation
        JOINT head
        {
          OFFSET -0.24384 7.07133 1.2192
          CHANNELS 3 Zrotation Xrotation Yrotation
          JOINT leftEye
          {
            OFFSET 4.14528 8.04674 8.04672
            CHANNELS 3 Zrotation Xrotation Yrotation
            End Site
            {
              OFFSET 1 0 0
            }
          }
          JOINT rightEye
          {
            OFFSET -3.6576 8.04674 8.04672
            CHANNELS 3 Zrotation Xrotation Yrotation
            End Site
            {
              OFFSET 1 0 0
            }
          }
        }
      }
      JOINT rCollar
      {
        OFFSET -2.68224 19.2634 -4.8768
        CHANNELS 3 Zrotation Xrotation Yrotation
        JOINT rShldr
        {
          OFFSET -8.77824 -1.95073 1.46304
          CHANNELS 3 Zrotation Xrotation Yrotation
          JOINT rForeArm
          {
            OFFSET -28.1742 -1.7115 0.48768
            CHANNELS 3 Zrotation Xrotation Yrotation
            JOINT rHand
            {
              OFFSET -22.5879 0.773209 7.07136
              CHANNELS 3 Zrotation Xrotation Yrotation
              JOINT rThumb1
              {
                OFFSET -1.2192 -0.487915 3.41376
                CHANNELS 3 Zrotation Xrotation Yrotation
                JOINT rThumb2
                {
                  OFFSET -3.37035 -0.52449 3.41376
                  CHANNELS 3 Zrotation Xrotation Yrotation
                  End Site
                  {
                    OFFSET -1.78271 -1.18214 1.43049
                  }
                }
              }
              JOINT rIndex1
              {
                OFFSET -7.75947 0.938293 5.60832
                CHANNELS 3 Zrotation Xrotation Yrotation
                JOINT rIndex2
                {
                  OFFSET -2.54057 -0.884171 1.56538
                  CHANNELS 3 Zrotation Xrotation Yrotation
                  End Site
                  {
                    OFFSET -1.62519 -0.234802 1.16502
                  }
                }
              }
              JOINT rMid1
              {
                OFFSET -8.24714 1.18213 3.41376
                CHANNELS 3 Zrotation Xrotation Yrotation
                JOINT rMid2
                {
                  OFFSET -3.10165 -0.590103 1.0647
                  CHANNELS 3 Zrotation Xrotation Yrotation
                  End Site
                  {
                    OFFSET -2.48547 -0.328903 0.83742
                  }
                }
              }
              JOINT rRing1
              {
                OFFSET -8.82822 0.546677 1.51678
                CHANNELS 3 Zrotation Xrotation Yrotation
                JOINT rRing2
                {
                  OFFSET -2.60934 -0.819778 -0.0198488
                  CHANNELS 3 Zrotation Xrotation Yrotation
                  End Site
                  {
                    OFFSET -2.33842 -0.294052 0.168128
                  }
                }
              }
              JOINT rPinky1
              {
                OFFSET -8.27202 -0.0477905 -0.4584
                CHANNELS 3 Zrotation Xrotation Yrotation
                JOINT rPinky2
                {
                  OFFSET -1.82734 -0.647385 -0.700984
                  CHANNELS 3 Zrotation Xrotation Yrotation
                  End Site
                  {
                    OFFSET -1.69225 -0.51767 -0.607171
                  }
                }
              }
            }
          }
        }
      }
      JOINT lCollar
      {
        OFFSET 2.68224 19.2634 -4.8768
        CHANNELS 3 Zrotation Xrotation Yrotation
        JOINT lShldr
        {
          OFFSET 8.77824 -1.95073 1.46304
          CHANNELS 3 Zrotation Xrotation Yrotation
          JOINT lForeArm
          {
            OFFSET 28.1742 -1.7115 0.48768
            CHANNELS 3 Zrotation Xrotation Yrotation
            JOINT lHand
            {
              OFFSET 22.5879 0.773209 7.07136
              CHANNELS 3 Zrotation Xrotation Yrotation
              JOINT lThumb1
              {
                OFFSET 1.2192 -0.487915 3.41376
                CHANNELS 3 Zrotation Xrotation Yrotation
                JOINT lThumb2
                {
                  OFFSET 3.37035 -0.52449 3.41376
                  CHANNELS 3 Zrotation Xrotation Yrotation
                  End Site
                  {
                    OFFSET 1.78271 -1.18214 1.43049
                  }
                }
              }
              JOINT lIndex1
              {
                OFFSET 7.75947 0.938293 5.60832
                CHANNELS 3 Zrotation Xrotation Yrotation
                JOINT lIndex2
                {
                  OFFSET 2.54057 -0.884171 1.56538
                  CHANNELS 3 Zrotation Xrotation Yrotation
                  End Site
                  {
                    OFFSET 1.62519 -0.234802 1.16502
                  }
                }
              }
              JOINT lMid1
              {
                OFFSET 8.24714 1.18213 3.41376
                CHANNELS 3 Zrotation Xrotation Yrotation
                JOINT lMid2
                {
                  OFFSET 3.10165 -0.590103 1.0647
                  CHANNELS 3 Zrotation Xrotation Yrotation
                  End Site
                  {
                    OFFSET 2.48547 -0.328903 0.83742
                  }
                }
              }
              JOINT lRing1
              {
                OFFSET 8.82822 0.546677 1.51678
                CHANNELS 3 Zrotation Xrotation Yrotation
                JOINT lRing2
                {
                  OFFSET 2.60934 -0.819778 -0.0198488
                  CHANNELS 3 Zrotation Xrotation Yrotation
                  End Site
                  {
                    OFFSET 2.33842 -0.294052 0.168128
                  }
                }
              }
              JOINT lPinky1
              {
                OFFSET 8.27202 -0.0477905 -0.4584
                CHANNELS 3 Zrotation Xrotation Yrotation
                JOINT lPinky2
                {
                  OFFSET 1.82734 -0.647385 -0.700984
                  CHANNELS 3 Zrotation Xrotation Yrotation
                  End Site
                  {
                    OFFSET 1.69225 -0.51767 -0.607171
                  }
                }
              }
            }
          }
        }
      }
    }
  }
  JOINT rButtock
  {
    OFFSET -8.77824 4.35084 1.2192
    CHANNELS 3 Zrotation Xrotation Yrotation
    JOINT rThigh
    {
      OFFSET 0 -1.70687 -2.19456
      CHANNELS 3 Zrotation Xrotation Yrotation
      JOINT rShin
      {
        OFFSET 0 -36.8199 0.73152
        CHANNELS 3 Zrotation Xrotation Yrotation
        JOINT rFoot
        {
          OFFSET 0.73152 -45.1104 -5.12064
          CHANNELS 3 Zrotation Xrotation Yrotation
          End Site
          {
            OFFSET -1.1221 -3.69964 12.103
          }
        }
      }
    }
  }
  JOINT lButtock
  {
    OFFSET 8.77824 4.35084 1.2192
    CHANNELS 3 Zrotation Xrotation Yrotation
    JOINT lThigh
    {
      OFFSET 0 -1.70687 -2.19456
      CHANNELS 3 Zrotation Xrotation Yrotation
      JOINT lShin
      {
        OFFSET 0 -36.8199 0.73152
        CHANNELS 3 Zrotation Xrotation Yrotation
        JOINT lFoot
        {
          OFFSET -0.73152 -45.1104 -5.12064
          CHANNELS 3 Zrotation Xrotation Yrotation
          End Site
          {
            OFFSET 1.1221 -3.69964 12.103
          }
        }
      }
    }
  }
}
MOTION
Frames:	7
Frame Time:	0.00833333
257.828 86.75 20.1381 -16.6001 -4.31094 -178.901 0.322844 28.1139 3.73464 -2.47502 -2.84288 2.13073 3.06754 5.7081 2.98623 1.19084 -33.3161 5.28252 -0 0 0 -0 0 0 4.78452e-013 -1.3435e-013 2.08037e-013 83.7205 57.5949 -18.1065 -24.5087 -20.0722 51.3249 -2.1395 -37.8074 -6.2564 -3.46462e-009 1.0685e-009 1.48362e-009 -6.00991e-009 1.8812e-009 2.44879e-009 -3.46462e-009 1.0685e-009 1.48361e-009 7.73091 5.47488 0.417314 -3.46462e-009 1.0685e-009 1.48362e-009 2.90554 0.965183 0.102902 -3.46461e-009 1.0685e-009 1.48362e-009 10.2786 0.731801 0.0259123 -3.46462e-009 1.0685e-009 1.48363e-009 2.22167 -0.733487 -0.20892 4.78343e-013 -1.34357e-013 2.07777e-013 -73.148 14.4889 10.4624 23.9037 -18.9161 -49.206 0.0756933 -7.78195 1.10053 -4.89294e-009 -3.25404e-009 9.92568e-010 -8.46413e-009 -5.63844e-009 1.69788e-009 -4.89294e-009 -3.25404e-009 9.92574e-010 -7.73091 5.47488 -0.417314 -4.89293e-009 -3.25403e-009 9.92571e-010 -2.90554 0.965183 -0.102902 -4.89293e-009 -3.25403e-009 9.92569e-010 -10.2786 0.731801 -0.0259123 -4.89293e-009 -3.25403e-009 9.92564e-010 -2.22167 -0.733487 0.20892 -2.03217e-016 0 -3.88251e-019 8.20152 -22.4688 14.6431 -0.112032 30.0538 0.465742 -2.31025 0.00695763 -29.5679 2.03217e-016 0 3.88251e-019 2.35842 -27.2477 -13.2371 0.403034 41.3939 -0.620556 -0.399062 -8.33629 -3.82471 
259.834 84.4115 20.1328 -17.141 -4.21563 -179.458 0.644048 28.6679 3.48039 -2.01038 -3.21185 1.93595 3.48473 5.84763 3.01902 1.13056 -33.413 5.24588 -0 0 0 -0 0 0 6.97022e-013 -1.9719e-013 3.62732e-013 83.3771 58.1881 -17.3923 -24.358 -19.7813 50.7625 -2.27265 -38.7015 -6.46525 -4.65203e-009 1.40504e-009 1.94271e-009 -8.0688e-009 2.47163e-009 3.20556e-009 -4.65203e-009 1.40504e-009 1.9427e-009 7.73091 5.47488 0.417314 -4.65204e-009 1.40504e-009 1.9427e-009 2.90554 0.965183 0.102902 -4.65203e-009 1.40504e-009 1.94271e-009 10.2786 0.731801 0.0259123 -4.65204e-009 1.40504e-009 1.94272e-009 2.22167 -0.733487 -0.20892 6.96902e-013 -1.97199e-013 3.62484e-013 -72.9524 14.1584 9.05863 22.9049 -17.1793 -46.311 0.0553755 -6.70005 0.945989 -6.43847e-009 -4.5873e-009 9.35586e-010 -1.11345e-008 -7.94768e-009 1.59471e-009 -6.43846e-009 -4.5873e-009 9.35595e-010 -7.73091 5.47488 -0.417314 -6.43846e-009 -4.5873e-009 9.35589e-010 -2.90554 0.965183 -0.102902 -6.43846e-009 -4.5873e-009 9.35586e-010 -10.2786 0.731801 -0.0259123 -6.43845e-009 -4.5873e-009 9.35579e-010 -2.22167 -0.733487 0.20892 -2.03217e-016 0 -3.88251e-019 8.4703 -23.499 13.8708 -0.130428 31.88 0.504284 -2.51587 -0.579741 -27.9589 2.03217e-016 0 3.88251e-019 2.94612 -28.5813 -12.3492 0.468681 44.4161 -0.707568 -0.441417 -10.925 -3.29798 
261.518 81.9029 19.9819 -17.1317 -4.251 -179.938 0.251294 29.065 3.83806 -1.68015 -3.46045 1.59587 3.67564 5.96461 2.87137 1.56708 -33.7001 5.00781 -0 0 0 -0 0 0 7.65732e-013 -2.20029e-013 4.01795e-013 83.4292 58.1606 -16.7865 -24.0736 -19.2447 49.7797 -2.26488 -38.6334 -6.45076 -4.80599e-009 1.3071e-009 2.25543e-009 -8.34308e-009 2.30148e-009 3.74188e-009 -4.80599e-009 1.3071e-009 2.25542e-009 7.73091 5.47488 0.417314 -4.806e-009 1.3071e-009 2.25543e-009 2.90554 0.965183 0.102902 -4.80599e-009 1.3071e-009 2.25543e-009 10.2786 0.731801 0.0259123 -4.806e-009 1.3071e-009 2.25544e-009 2.22167 -0.733487 -0.20892 7.65599e-013 -2.2003e-013 4.01562e-013 -72.3046 14.4147 7.13009 21.7645 -15.4682 -43.0398 0.0314462 -5.31561 0.749058 -6.65406e-009 -4.56843e-009 5.67343e-010 -1.15043e-008 -7.91437e-009 9.61242e-010 -6.65406e-009 -4.56843e-009 5.67352e-010 -7.73091 5.47488 -0.417314 -6.65405e-009 -4.56843e-009 5.67343e-010 -2.90554 0.965183 -0.102902 -6.65406e-009 -4.56843e-009 5.67342e-010 -10.2786 0.731801 -0.0259123 -6.65405e-009 -4.56842e-009 5.67332e-010 -2.22167 -0.733487 0.20892 -2.03217e-016 0 -3.88251e-019 8.28915 -25.1327 11.8781 -0.162109 34.9343 0.601712 -3.62094 -3.20687 -25.5924 2.03217e-016 0 3.88251e-019 2.77783 -30.862 -12.4743 0.571721 48.4512 -0.847448 -0.371317 -13.775 -2.54933 
262.633 79.987 19.8533 -16.755 -4.34231 179.633 -0.684249 29.3646 4.61046 -1.41589 -3.64051 1.14703 3.74001 6.08448 2.61625 2.35863 -34.1089 4.66407 -0 0 0 -0 0 0 7.48021e-013 -2.21652e-013 3.76421e-013 83.8601 57.7209 -16.3802 -23.6978 -18.559 48.5689 -2.17346 -37.992 -6.30339 -4.35593e-009 9.48376e-010 2.48701e-009 -7.57446e-009 1.67454e-009 4.15715e-009 -4.35593e-009 9.48374e-010 2.487e-009 7.73091 5.47488 0.417314 -4.35593e-009 9.48375e-010 2.487e-009 2.90554 0.965183 0.102902 -4.35593e-009 9.48374e-010 2.487e-009 10.2786 0.731801 0.0259123 -4.35594e-009 9.48377e-010 2.48701e-009 2.22167 -0.733487 -0.20892 7.47873e-013 -2.21638e-013 3.76206e-013 -71.2757 15.0869 4.77072 20.4457 -13.7003 -39.4619 0.0116445 -3.71507 0.522584 -6.07875e-009 -3.74748e-009 1.46433e-011 -1.05062e-008 -6.49206e-009 1.38115e-011 -6.07875e-009 -3.74748e-009 1.46485e-011 -7.73091 5.47488 -0.417314 -6.07875e-009 -3.74748e-009 1.46383e-011 -2.90554 0.965183 -0.102902 -6.07875e-009 -3.74748e-009 1.4638e-011 -10.2786 0.731801 -0.0259123 -6.07874e-009 -3.74747e-009 1.4625e-011 -2.22167 -0.733487 0.20892 -2.03217e-016 0 -3.88251e-019 7.63183 -27.1921 8.77699 -0.225321 39.0294 0.755853 -4.99565 -7.33541 -22.641 2.03217e-016 0 3.88251e-019 2.06371 -33.7922 -13.295 0.742508 53.4259 -1.06361 -0.153603 -16.9905 -1.57751 
264.659 78.0426 19.9281 -16.3 -4.45216 179.254 -1.73679 29.7236 5.43213 -1.21775 -3.78822 0.693092 3.7561 6.17083 2.37515 3.21437 -34.5892 4.36539 -0 0 0 -0 0 0 6.82639e-013 -2.07868e-013 3.19938e-013 84.4138 57.1785 -16.091 -23.31 -17.8721 47.4289 -2.08372 -37.3423 -6.15672 -3.67605e-009 5.23302e-010 2.64494e-009 -6.40809e-009 9.3098e-010 4.45217e-009 -3.67605e-009 5.23301e-010 2.64492e-009 7.73091 5.47488 0.417314 -3.67605e-009 5.23303e-010 2.64493e-009 2.90554 0.965183 0.102902 -3.67605e-009 5.23302e-010 2.64493e-009 10.2786 0.731801 0.0259123 -3.67606e-009 5.23305e-010 2.64494e-009 2.22167 -0.733487 -0.20892 6.82478e-013 -2.0784e-013 3.19737e-013 -70.2186 15.9025 2.44267 19.1081 -12.0268 -36.2725 0.00349951 -2.34172 0.329128 -5.18355e-009 -2.67333e-009 -5.53789e-010 -8.95531e-009 -4.63124e-009 -9.60275e-010 -5.18355e-009 -2.67334e-009 -5.53787e-010 -7.73091 5.47488 -0.417314 -5.18354e-009 -2.67333e-009 -5.53799e-010 -2.90554 0.965183 -0.102902 -5.18355e-009 -2.67333e-009 -5.53798e-010 -10.2786 0.731801 -0.0259123 -5.18354e-009 -2.67333e-009 -5.53814e-010 -2.22167 -0.733487 0.20892 -2.03217e-016 0 -3.88251e-019 6.91175 -29.267 5.58993 -0.31948 43.2137 0.938075 -6.08159 -11.7269 -20.0518 2.03217e-016 0 3.88251e-019 1.19019 -36.6961 -14.4313 0.978355 58.2981 -1.34049 0.201335 -19.9342 -0.538495 
266.023 76.6617 20.0316 -16.0549 -4.54312 178.929 -2.47866 30.3064 5.93733 -1.08567 -3.93998 0.337747 3.80084 6.18738 2.26973 3.85056 -35.0916 4.26641 -0 0 0 -0 0 0 6.08335e-013 -1.8449e-013 2.65676e-013 84.8221 56.842 -15.8236 -23.0197 -17.3694 46.6429 -2.06942 -37.2505 -6.13501 -3.14056e-009 2.26322e-010 2.73672e-009 -5.48913e-009 4.10975e-010 4.62772e-009 -3.14055e-009 2.2632e-010 2.73671e-009 7.73091 5.47488 0.417314 -3.14056e-009 2.26323e-010 2.73672e-009 2.90554 0.965183 0.102902 -3.14055e-009 2.26322e-010 2.73671e-009 10.2786 0.731801 0.0259123 -3.14056e-009 2.26326e-010 2.73672e-009 2.22167 -0.733487 -0.20892 6.08168e-013 -1.84454e-013 2.65477e-013 -69.5514 16.6015 0.623849 18.0493 -10.7398 -34.131 0.0032957 -1.63899 0.230408 -4.43945e-009 -1.89489e-009 -9.69229e-010 -7.66714e-009 -3.28237e-009 -1.67371e-009 -4.43946e-009 -1.89489e-009 -9.69229e-010 -7.73091 5.47488 -0.417314 -4.43945e-009 -1.89489e-009 -9.69242e-010 -2.90554 0.965183 -0.102902 -4.43946e-009 -1.89489e-009 -9.69241e-010 -10.2786 0.731801 -0.0259123 -4.43944e-009 -1.89489e-009 -9.69258e-010 -2.22167 -0.733487 0.20892 -2.03217e-016 0 -3.88251e-019 6.7804 -31.0108 3.44553 -0.416995 46.536 1.09994 -6.80197 -14.9705 -18.6871 2.03217e-016 0 3.88251e-019 0.69376 -38.9262 -15.3929 1.22519 62.0267 -1.61598 0.600641 -21.9695 0.389538 
267.099 76.0673 19.9037 -16.1454 -4.53803 178.745 -2.82835 31.2484 6.02042 -1.04664 -4.1207 0.123588 3.91893 6.10447 2.37027 4.22783 -35.557 4.49714 -0 0 0 -0 0 0 5.28952e-013 -1.46969e-013 2.13547e-013 84.9274 56.9042 -15.3531 -22.8286 -17.0406 46.17 -2.17569 -38.0598 -6.31417 -2.96816e-009 1.21405e-010 2.82243e-009 -5.19664e-009 2.26527e-010 4.77993e-009 -2.96816e-009 1.21404e-010 2.82242e-009 7.73091 5.47488 0.417314 -2.96816e-009 1.21406e-010 2.82243e-009 2.90554 0.965183 0.102902 -2.96816e-009 1.21405e-010 2.82242e-009 10.2786 0.731801 0.0259123 -2.96817e-009 1.21409e-010 2.82243e-009 2.22167 -0.733487 -0.20892 5.28782e-013 -1.46934e-013 2.13327e-013 -69.4764 16.9794 -0.558575 17.4797 -10.0442 -33.1556 0.00513495 -1.85154 0.260421 -4.03043e-009 -1.63948e-009 -1.12648e-009 -6.96105e-009 -2.83909e-009 -1.94759e-009 -4.03043e-009 -1.63948e-009 -1.12648e-009 -7.73091 5.47488 -0.417314 -4.03043e-009 -1.63948e-009 -1.12649e-009 -2.90554 0.965183 -0.102902 -4.03043e-009 -1.63948e-009 -1.12649e-009 -10.2786 0.731801 -0.0259123 -4.03042e-009 -1.63948e-009 -1.1265e-009 -2.22167 -0.733487 0.20892 -2.03217e-016 0 -3.88251e-019 7.92675 -32.4954 2.94855 -0.494094 48.9663 1.21783 -7.55178 -16.5415 -19.1405 2.03217e-016 0 3.88251e-019 1.05019 -40.2353 -15.8403 1.41258 64.3128 -1.82121 0.889289 -22.8646 1.00314 
